<?xml version="1.0" standalone="no"?>
<!DOCTYPE svg PUBLIC "-//W3C//DTD SVG 20010904//EN"
 "http://www.w3.org/TR/2001/REC-SVG-20010904/DTD/svg10.dtd">
<svg version="1.0" xmlns="http://www.w3.org/2000/svg"
 width="512.000000pt" height="512.000000pt" viewBox="0 0 512.000000 512.000000"
 preserveAspectRatio="xMidYMid meet">

<g transform="translate(0.000000,512.000000) scale(0.100000,-0.100000)"
fill="#FFF" stroke="none">
<path d="M843 5096 l-28 -24 -3 -236 -3 -236 -230 0 -231 0 -29 -29 -29 -30 2
-2191 3 -2192 24 -19 c23 -19 64 -19 1716 -19 l1692 0 27 21 26 20 0 246 c0
134 4 243 8 241 5 -1 140 -141 301 -310 307 -321 327 -338 409 -338 62 1 112
33 213 136 125 128 143 184 95 286 -10 20 -118 131 -256 262 l-240 228 -2
2080 -3 2080 -28 24 -28 24 -1689 0 -1689 0 -28 -24z m3307 -2077 c0 -1311 -3
-1940 -10 -1937 -6 2 -89 77 -185 168 l-175 165 0 190 0 190 86 85 c98 97 116
126 116 185 0 59 -18 88 -116 185 l-86 85 0 1098 0 1098 -25 24 -24 25 -363 1
c-200 1 -820 5 -1378 8 l-1015 6 -3 183 -2 182 1590 0 1590 0 0 -1941z m-1612
1406 c9 -3 12 -84 12 -359 0 -392 0 -389 65 -402 25 -5 50 7 160 77 72 45 141
89 155 97 25 15 30 12 163 -76 146 -98 175 -108 218 -73 l24 19 3 356 3 356
139 0 140 0 0 -962 0 -962 -147 146 c-123 121 -154 147 -185 153 -75 14 -106
0 -201 -93 -120 -117 -141 -171 -97 -256 10 -22 16 -44 13 -50 -22 -37 -170
-214 -237 -284 -72 -75 -231 -214 -310 -270 l-32 -22 -39 20 c-43 22 -89 25
-132 9 -38 -14 -192 -166 -209 -206 -19 -43 -18 -97 2 -136 16 -32 535 -561
607 -619 47 -38 99 -51 152 -37 28 8 63 34 123 92 46 45 90 94 98 109 20 39
18 117 -5 154 l-19 31 49 63 c26 34 50 64 52 66 2 2 119 -118 260 -266 l257
-269 0 -276 0 -275 -258 0 -259 0 -27 123 c-27 125 -41 155 -90 191 -27 21
-38 21 -546 21 -508 0 -519 0 -546 -21 -49 -36 -63 -66 -90 -192 l-27 -122
-664 0 -663 0 0 2078 0 2079 1038 -4 c570 -3 1043 -6 1050 -8z m640 -10 c1 -1
1 -117 0 -258 l-3 -256 -99 64 c-54 36 -108 65 -120 65 -12 0 -67 -28 -122
-63 -54 -35 -105 -66 -111 -71 -10 -6 -13 49 -13 261 l0 268 232 -4 c128 -1
234 -4 236 -6z m359 -2057 c156 -156 283 -287 283 -293 0 -13 -102 -115 -115
-115 -5 0 -138 128 -295 285 l-285 285 60 60 c33 33 62 60 65 60 3 0 132 -127
287 -282z m-233 -237 c93 -93 167 -173 165 -179 -2 -5 -42 -40 -89 -78 -111
-88 -337 -316 -425 -427 l-69 -88 -173 173 c-95 95 -172 176 -171 179 2 4 50
44 108 90 130 103 290 263 395 397 44 56 82 102 85 102 3 0 81 -76 174 -169z
m314 -434 l-3 -118 -78 79 -77 78 67 51 c90 69 95 64 91 -90z m-1021 -269
c156 -156 283 -287 283 -293 0 -13 -102 -115 -115 -115 -5 0 -138 128 -295
285 l-285 285 60 60 c33 33 62 60 65 60 3 0 132 -127 287 -282z m1413 -441
c363 -346 660 -634 660 -640 0 -22 -167 -180 -183 -174 -20 7 -1267 1316
-1267 1328 0 15 109 121 120 117 6 -2 307 -286 670 -631z m-1104 -544 c3 -16
10 -44 14 -63 4 -19 11 -47 14 -62 l6 -28 -500 0 c-473 0 -501 1 -496 18 3 9
12 50 21 90 l17 72 459 0 459 0 6 -27z"/>
<path d="M995 3815 c-33 -33 -32 -70 4 -106 l29 -29 427 0 427 0 29 29 c36 36
37 73 4 106 l-24 25 -436 0 -436 0 -24 -25z"/>
<path d="M995 3235 c-39 -38 -27 -102 22 -124 17 -8 314 -11 1029 -11 l1005 0
24 25 c35 34 34 86 -1 114 -27 21 -30 21 -1041 21 l-1014 0 -24 -25z"/>
<path d="M1009 2670 c-9 -5 -22 -23 -29 -40 -15 -35 0 -84 31 -100 11 -6 312
-10 783 -10 l765 0 27 23 c37 33 37 81 0 114 l-27 23 -767 0 c-463 0 -773 -4
-783 -10z"/>
<path d="M1014 2088 c-47 -22 -56 -86 -19 -123 l24 -25 433 0 c472 0 468 0
482 56 9 36 -9 79 -40 93 -33 15 -849 14 -880 -1z"/>
<path d="M999 1491 c-36 -36 -37 -73 -4 -106 l24 -25 436 0 436 0 24 25 c33
33 32 70 -4 106 l-29 29 -427 0 -427 0 -29 -29z"/>
<path d="M1024 930 c-28 -11 -54 -48 -54 -78 0 -12 11 -34 25 -47 l24 -25 436
0 436 0 24 25 c32 31 32 66 1 102 l-24 28 -424 2 c-232 1 -433 -2 -444 -7z"/>
</g>
</svg>
