<?xml version="1.0" standalone="no"?>
<!DOCTYPE svg PUBLIC "-//W3C//DTD SVG 20010904//EN"
 "http://www.w3.org/TR/2001/REC-SVG-20010904/DTD/svg10.dtd">
<svg version="1.0" xmlns="http://www.w3.org/2000/svg"
 width="512.000000pt" height="512.000000pt" viewBox="0 0 512.000000 512.000000"
 preserveAspectRatio="xMidYMid meet">

<g transform="translate(0.000000,512.000000) scale(0.100000,-0.100000)"
fill="#FFF" stroke="none">
<path d="M4165 4826 c-334 -64 -588 -328 -646 -671 -8 -48 -9 -102 -3 -180 15
-187 9 -318 -21 -418 -29 -100 -47 -139 -187 -394 l-99 -181 -42 24 c-84 47
-180 41 -251 -18 -21 -17 -58 -66 -83 -109 -25 -44 -50 -79 -56 -79 -6 0 -56
27 -111 60 -135 79 -166 91 -242 91 -51 1 -77 -5 -119 -26 -69 -33 -96 -64
-185 -216 -105 -176 -101 -203 43 -286 l82 -48 -755 -5 c-543 -4 -764 -9 -788
-17 -84 -30 -171 -102 -205 -170 -8 -15 -122 -350 -253 -743 -238 -713 -239
-715 -239 -800 1 -73 5 -94 30 -144 56 -116 158 -189 288 -206 96 -13 4378
-13 4474 0 130 17 232 90 288 206 25 50 29 71 30 144 0 85 -1 87 -239 800
-131 393 -249 733 -262 756 -27 48 -89 106 -141 132 -60 31 -134 42 -271 42
l-127 0 -18 49 c-16 46 -57 92 -115 131 -22 15 -22 15 110 225 196 310 290
401 532 508 139 62 224 118 302 199 107 111 169 226 206 377 27 114 22 300
-12 406 -51 161 -154 312 -277 405 -79 60 -202 122 -288 145 -84 22 -263 28
-350 11z m289 -206 c265 -68 442 -282 454 -551 6 -141 -24 -257 -95 -361 -77
-114 -149 -170 -313 -243 -190 -84 -329 -185 -433 -312 -30 -38 -110 -156
-177 -263 -68 -107 -129 -201 -136 -209 -11 -12 -38 1 -176 82 -90 53 -170
102 -180 109 -15 12 -7 29 79 183 182 325 222 428 244 629 8 74 8 131 -1 227
-18 186 0 295 68 418 129 235 408 357 666 291z m-983 -2026 c219 -130 399
-239 399 -244 0 -13 -80 -145 -88 -145 -14 0 -822 480 -822 488 0 5 19 40 41
78 29 48 46 68 56 65 8 -3 194 -112 414 -242z m-214 -315 c439 -259 811 -484
826 -501 22 -24 28 -37 23 -58 -8 -40 -81 -156 -97 -152 -10 3 -1716 1007
-1727 1017 -5 5 79 139 96 153 43 33 57 26 879 -459z m46 -530 c391 -232 726
-423 742 -425 52 -8 84 23 164 161 89 151 108 214 92 293 -13 67 -51 133 -94
166 -17 13 -79 52 -137 86 -58 34 -107 63 -109 65 -2 2 7 20 19 39 l22 36 156
0 c86 0 175 -5 196 -11 80 -22 74 -7 329 -775 131 -390 237 -722 237 -737 0
-40 -23 -88 -59 -122 l-32 -30 -2269 0 -2269 0 -32 30 c-36 34 -59 82 -59 122
0 44 469 1441 493 1469 47 54 29 53 1000 54 l897 0 713 -421z"/>
<path d="M4184 4541 c-30 -13 -64 -59 -64 -88 0 -32 26 -80 49 -93 66 -35 151
18 151 94 0 56 -83 109 -136 87z"/>
<path d="M4490 4433 c-28 -10 -59 -46 -65 -75 -10 -44 10 -79 68 -118 28 -20
62 -54 74 -75 32 -56 31 -142 -2 -213 -50 -107 -22 -182 68 -182 34 0 49 6 69
28 87 92 114 304 56 432 -33 74 -104 150 -170 183 -53 27 -70 30 -98 20z"/>
<path d="M1051 1896 c-56 -31 -66 -99 -22 -148 l29 -33 654 -3 c359 -2 668 0
687 3 81 15 110 108 52 166 l-29 29 -674 0 c-539 -1 -678 -3 -697 -14z"/>
<path d="M920 1417 c-24 -8 -40 -23 -52 -47 -21 -43 -14 -81 19 -115 l26 -25
1049 0 1050 0 29 29 c40 40 40 89 0 133 l-29 33 -1029 2 c-779 2 -1036 -1
-1063 -10z"/>
<path d="M704 930 c-76 -30 -70 -152 8 -179 22 -8 510 -11 1610 -11 1406 0
1584 2 1613 15 50 24 67 77 43 130 -26 58 72 55 -1660 54 -876 0 -1603 -4
-1614 -9z"/>
</g>
</svg>
