<?xml version="1.0" standalone="no"?>
<!DOCTYPE svg PUBLIC "-//W3C//DTD SVG 20010904//EN"
 "http://www.w3.org/TR/2001/REC-SVG-20010904/DTD/svg10.dtd">
<svg version="1.0" xmlns="http://www.w3.org/2000/svg"
 width="512.000000pt" height="512.000000pt" viewBox="0 0 512.000000 512.000000"
 preserveAspectRatio="xMidYMid meet">

<g transform="translate(0.000000,512.000000) scale(0.100000,-0.100000)"
fill="#FFF" stroke="none">
<path d="M2463 5106 c-106 -34 -197 -117 -232 -210 l-19 -51 -690 -5 c-661 -5
-691 -6 -711 -24 -31 -28 -28 -79 5 -105 24 -19 40 -21 175 -21 l149 0 0 -72
0 -72 -362 -689 c-309 -587 -367 -691 -393 -704 -43 -22 -65 -53 -65 -94 0
-47 185 -375 227 -401 26 -17 76 -18 673 -18 515 1 650 3 669 14 14 8 66 86
127 192 119 206 124 226 70 280 -19 19 -40 34 -48 34 -7 1 -175 309 -380 701
l-368 700 0 65 0 64 461 -2 461 -3 21 -55 c27 -73 111 -158 190 -190 l57 -24
0 -128 0 -128 -60 0 c-51 0 -64 -4 -90 -27 -19 -17 -35 -44 -40 -68 -6 -23
-10 -415 -10 -911 l0 -872 -37 -7 c-84 -16 -153 -68 -193 -148 -28 -56 -30
-68 -30 -169 l0 -108 -86 0 c-109 0 -154 -13 -210 -63 -71 -63 -78 -83 -84
-242 l-5 -140 -555 -5 c-603 -6 -582 -4 -701 -66 -341 -178 -422 -636 -163
-922 70 -78 148 -129 254 -166 85 -30 85 -30 348 -34 l262 -4 0 -64 c0 -77 18
-116 60 -134 46 -19 80 -7 183 65 52 36 98 65 102 65 4 0 54 -31 111 -70 106
-70 135 -80 177 -59 44 23 57 50 57 127 l0 72 1610 0 c1158 0 1616 3 1633 11
24 11 47 47 47 73 0 7 -9 25 -21 40 -19 25 -25 26 -115 26 l-94 0 0 444 0 444
91 4 c85 4 94 6 115 32 29 33 30 56 3 90 l-20 26 -767 2 -767 3 -5 140 c-6
159 -13 179 -84 242 -56 50 -101 63 -210 63 l-86 0 0 108 c0 91 -4 114 -24
157 -39 84 -113 144 -199 160 l-36 7 -3 618 c-3 591 -4 619 -22 639 -25 27
-86 29 -109 3 -15 -17 -17 -76 -17 -640 l0 -622 -130 0 -130 0 0 865 0 865
130 0 130 0 0 -103 c0 -118 10 -137 72 -137 55 0 71 25 76 125 7 134 -4 193
-43 232 -30 30 -38 33 -94 33 l-61 0 0 128 0 128 58 24 c78 32 162 117 189
190 l21 55 461 3 461 2 0 -64 0 -65 -367 -700 c-206 -392 -374 -700 -381 -701
-8 0 -29 -15 -48 -34 -54 -54 -49 -74 70 -280 61 -106 113 -184 127 -192 19
-10 109 -13 407 -14 369 0 383 1 402 20 27 27 26 81 -1 106 -20 18 -45 19
-377 24 l-356 5 -59 103 c-33 57 -57 105 -55 108 3 2 324 3 715 2 l711 -3 -62
-107 -61 -107 -86 -1 c-105 0 -139 -19 -139 -76 0 -63 23 -74 158 -74 94 0
123 4 145 18 42 26 227 354 227 401 0 41 -22 72 -65 94 -26 13 -84 117 -392
704 l-363 689 0 72 0 72 149 0 c135 0 151 2 175 21 33 26 36 77 5 105 -20 18
-50 19 -711 24 l-690 5 -20 52 c-45 121 -175 213 -311 219 -43 3 -89 -2 -114
-10z m211 -173 c59 -41 86 -94 86 -168 0 -75 -27 -127 -88 -170 -38 -26 -52
-30 -112 -30 -60 0 -74 4 -112 30 -60 43 -88 96 -88 168 0 93 54 171 137 197
51 17 133 4 177 -27z m-1100 -1233 c146 -278 268 -513 272 -522 6 -17 -11 -18
-275 -18 l-281 0 0 532 c0 321 4 528 9 523 5 -6 129 -237 275 -515z m2256 -10
l0 -530 -281 0 c-264 0 -281 1 -275 18 7 17 437 838 508 970 22 39 42 72 44
72 2 0 4 -238 4 -530z m-2693 -527 c-2 -2 -128 -2 -279 -1 l-275 3 276 525
276 525 3 -524 c1 -288 1 -526 -1 -528z m3093 587 c128 -245 251 -478 272
-517 l40 -73 -281 0 -281 0 0 527 c0 290 4 523 8 518 5 -6 114 -210 242 -455z
m-2300 -747 c0 -5 -26 -53 -58 -108 l-58 -100 -594 -2 -595 -3 -32 58 c-18 31
-46 81 -63 110 l-30 52 715 0 c393 0 715 -3 715 -7z m986 -915 c34 -38 34 -38
34 -138 l0 -100 -390 0 -390 0 0 99 c0 93 2 101 27 131 14 18 36 36 47 41 12
4 160 7 329 6 l309 -2 34 -37z m385 -417 c29 -29 29 -30 29 -150 l0 -121 -382
0 c-341 0 -383 -2 -400 -17 -26 -23 -24 -84 3 -109 20 -18 55 -19 1075 -22
l1054 -2 0 -90 0 -90 -825 0 c-812 0 -825 0 -845 -20 -30 -30 -27 -83 6 -109
27 -21 32 -21 845 -21 l819 0 0 -110 0 -110 -819 0 c-813 0 -818 0 -845 -21
-33 -26 -36 -79 -6 -109 20 -20 33 -20 845 -20 l825 0 0 -95 0 -95 -1452 2
-1453 3 -3 278 -2 277 330 0 331 0 24 25 c31 30 32 71 3 102 l-21 23 -709 0
-709 0 -24 -25 c-14 -13 -25 -36 -25 -50 0 -36 42 -75 80 -75 l30 0 -2 -277
-3 -278 -42 2 c-51 2 -115 34 -141 70 -38 56 -42 88 -42 375 0 229 3 285 16
316 16 39 56 86 89 105 14 9 202 13 671 17 623 5 653 6 673 24 26 23 28 81 4
108 -15 16 -37 18 -265 18 l-248 0 0 121 c0 120 0 121 29 150 l29 29 712 0
712 0 29 -29z m-2551 -425 c0 -2 -10 -25 -22 -52 -22 -48 -23 -58 -23 -384 l0
-335 27 -57 27 -58 -62 0 c-241 1 -417 132 -473 353 -53 206 72 436 280 513
47 18 83 23 154 23 50 1 92 -1 92 -3z m870 -686 c0 -198 -2 -360 -5 -360 -3 0
-41 25 -84 55 -49 34 -89 55 -106 55 -17 0 -57 -21 -105 -55 -43 -30 -81 -55
-84 -55 -3 0 -6 162 -6 360 l0 360 195 0 195 0 0 -360z"/>
</g>
</svg>
